PathFileType	4	(X/Y/Z)	9_2_63_p1_0-119_filt_butterworth.trc
DataRate	CameraRate	NumFrames	NumMarkers	Units	OrigDataRate	OrigDataStartFrame	OrigNumFrames
59.0	59.0	5	27	m	59.0	59	119
Frame#	Time	RHip			RKnee			RAnkle			RBigToe			RSmallToe			RHeel			LHip			LKnee			LAnkle			LBigToe			LSmallToe			LHeel			Neck			Head			Nose			RShoulder			RElbow			RWrist			RThumb			RIndex			RPinky			LShoulder			LElbow			LWrist			LThumb			LIndex			LPinky			
		X1	Y1	Z1	X2	Y2	Z2	X3	Y3	Z3	X4	Y4	Z4	X5	Y5	Z5	X6	Y6	Z6	X7	Y7	Z7	X8	Y8	Z8	X9	Y9	Z9	X10	Y10	Z10	X11	Y11	Z11	X12	Y12	Z12	X13	Y13	Z13	X14	Y14	Z14	X15	Y15	Z15	X16	Y16	Z16	X17	Y17	Z17	X18	Y18	Z18	X19	Y19	Z19	X20	Y20	Z20	X21	Y21	Z21	X22	Y22	Z22	X23	Y23	Z23	X24	Y24	Z24	X25	Y25	Z25	X26	Y26	Z26	X27	Y27	Z27	
59	1.0	0.318394217700843	0.4963787336834232	1.1111716396411202	0.2967122160056216	0.5212980479156412	1.5032767892538579	0.314256816338698	0.6194565914938137	1.9084406729661443	0.27931308778607444	0.40420633219073365	1.879542215082462	0.3278077712459878	0.4241302022400092	1.8783227970303407	0.30101879012624705	0.7133915708443022	1.9870826378623883	0.09872058374129916	0.47934390076846106	1.1218961358584967	0.11883605870875387	0.5268459113086295	1.5101907949339415	0.10275560584476573	0.5859726960075867	1.90613407149033	0.12233061897518958	0.3554276903141908	1.8632151614334513	0.08628028178487307	0.38127960180619636	1.8536676331282838	0.11254435038397365	0.6496912341531004	1.984900932206599	0.20902728912001503	0.45133492387819685	0.6063622046089688	0.22857753845706646	0.3654421703110033	0.339616686811205	0.23408924294617411	0.3422229504764697	0.49377799372833864	0.36248598325312653	0.4214071013665579	0.6727908341292433	0.4197496318544916	0.29704090484153683	0.8337876168010463	0.2868391211925035	0.2870605356982413	0.7117805274896082	0.243189597906682	0.3814001052206707	0.6436040371381399	0.23533674505590524	0.3714850970948127	0.6543620805562521	0.2130549696073679	0.3309554082132383	0.6772099668322397	0.05960024702577934	0.4425846735380912	0.6807577483155789	-0.02326812200547038	0.45611563692159374	0.9341201391654125	-0.025223105628695654	0.4558683785028986	1.1648507420013487	0.028098750529234946	0.39805297133310874	1.2479805360184664	0.0049376649638023865	0.39436647735676134	1.2738108239805257	-0.0399654154427308	0.41882865762642285	1.2641875663150643
60	1.0169491525423728	0.3185458978361192	0.49584386681872245	1.1124581937377789	0.2957239539041091	0.5206875074654227	1.503201474491782	0.3142706080627263	0.6195019949876541	1.9083635999338968	0.2778390698919126	0.404431359522601	1.8797597399575232	0.3258615641796645	0.42400189386785636	1.8782785956052095	0.302684050520803	0.7137563588442489	1.9871983286505521	0.09883962966238544	0.47876913545695005	1.1233547629236476	0.11882639608337496	0.5269208439813262	1.510231908761513	0.10310373391605229	0.5854445545797955	1.9054208538716289	0.12260439942667717	0.35651177726217764	1.863759181037057	0.0857063034943843	0.38909239129853795	1.8583613869714555	0.11241157576190297	0.6494374457123391	1.982080622465846	0.2090525285941891	0.45131752439290096	0.6063515553220291	0.22859595928826779	0.3654661156786281	0.33959159341037515	0.233186753869476	0.34113057334585634	0.4937104775999254	0.3615186671066155	0.42144986700458975	0.6720795662704597	0.4193491240705083	0.2960520208459427	0.8338635853920606	0.28559890271955635	0.2871654796310289	0.7111849772273265	0.24281307007654243	0.3845149078438447	0.6450085236555575	0.23475953926115425	0.37252601334446805	0.6539332357269728	0.21421541349674672	0.33756284101040535	0.6741439007530283	0.060180226417501786	0.44604366577490895	0.6811891988688137	-0.023432149641924103	0.4559867136408732	0.9325097292277954	-0.02757129395364927	0.4583561716360782	1.165283324055852	0.023409265292908786	0.40209461376346683	1.2500962227602508	-0.002873838260984012	0.40531357684348873	1.2784428866524045	-0.043823161884639986	0.41222026916783683	1.261984873638135
61	1.0338983050847457	0.3186506698179645	0.4954935023146285	1.1134590560220037	0.2953460649188351	0.5203859265968167	1.5031652999402616	0.31428183238139407	0.6195258052340563	1.9082938789289792	0.27724316239435315	0.4046963574340097	1.8799666184278552	0.3249526662137403	0.4240160360609538	1.8783125848163795	0.3039321579782165	0.7139842702570777	1.9872966382908515	0.09886746972204297	0.47836986156682126	1.1242119650868367	0.11872916762634414	0.5267787344824331	1.5109399199794455	0.1033621401817915	0.5850783972934278	1.9047553302550226	0.12264623007680296	0.3564156440549293	1.863691970862671	0.08588166226539053	0.3935935756086461	1.861593078770683	0.11245672303751458	0.649292738220478	1.9810753226917917	0.20905672385772558	0.4513002618138034	0.6063231785056821	0.22860627675951134	0.36547928695894855	0.3395613155004381	0.23230996072082388	0.34108144154653275	0.4936219363983851	0.3605610089709234	0.42132493691508505	0.6712609068080417	0.4193362590938519	0.2961486569165522	0.8341588589869955	0.2854276449989708	0.28688911768643427	0.7126402739967428	0.24279300412761912	0.38537733128221147	0.6465173124893437	0.23445308874046214	0.37154465505734396	0.6537255848453469	0.21473368854215444	0.33975675460826044	0.6722016971971029	0.0603498253391921	0.4472917285654785	0.6813970256720504	-0.023514910195144394	0.45595830234414997	0.932167220846831	-0.028500104033495115	0.4589308547266779	1.1651870628292373	0.019982786158433786	0.40667530895339554	1.2515778834348052	-0.01114556706668628	0.41936290962590006	1.2837851196877323	-0.047654374643225146	0.40951378951274686	1.25991551518453
62	1.0508474576271187	0.3186887637803475	0.49536832118235163	1.1138450549247332	0.29536176966551236	0.5203581413791276	1.5031369368305718	0.3142922447395961	0.6195329359409073	1.9082529679138474	0.27722194601573324	0.4047875201344475	1.8800323690043004	0.3248632056486048	0.42403122861145875	1.8783529791032452	0.30441003871938643	0.7140662917671436	1.9873647859557413	0.09886409519555032	0.4781051431510456	1.1247441160747043	0.11851902797710528	0.5265956615150463	1.5125527676508794	0.10346129660697198	0.5849716719910768	1.9044078148356205	0.12260854216159738	0.3561163121672218	1.8635361436227178	0.08623641689440528	0.39487456058144543	1.86280928203916	0.112532590325347	0.6492725800927149	1.9811666925988785	0.20904369969971798	0.4512715830970637	0.6062817023895779	0.22860936341252738	0.3654899202823383	0.33955234624035435	0.231926963706337	0.34131038778575545	0.4935574713786904	0.3600178781175431	0.42060593832959825	0.670837137247261	0.419463280294173	0.29645521111635076	0.8343507475812928	0.2857169534785242	0.28672447411579954	0.7146933865788312	0.24291034881885587	0.3850732487416521	0.64718448269295	0.23439507676582058	0.3706032490706148	0.6536777675458687	0.2146414373093275	0.3409716206141077	0.6722847942470804	0.06009665024528186	0.4460691253139375	0.6813068020499503	-0.023496066894809826	0.4559110064957177	0.9322043131918087	-0.02880707171066841	0.4586860418648992	1.1638030688893921	0.016955488843901086	0.411266928758769	1.251702682909831	-0.018252573050365622	0.43264458791950955	1.2873621156329869	-0.050542373506723005	0.41052900356827043	1.2577841477400638
63	1.0677966101694916	0.31868679838425273	0.4953563892997246	1.1138366149607735	0.29545608290018405	0.5203697109155115	1.5030668259505333	0.31429922864004023	0.6195465849062795	1.9082516090605417	0.27733816064361655	0.4047831802449503	1.8800218453097408	0.3250121106895708	0.4240191169912624	1.8783703919481751	0.30442337531273894	0.7141032609250206	1.9874151022864381	0.09889174376862525	0.47788899593882006	1.1251775702473128	0.11829373152239914	0.5264090507156465	1.5149848972158613	0.10346144006760491	0.5850087140736943	1.904375545051321	0.12256411912782508	0.35593463414342164	1.8634510579313004	0.08637219033063204	0.3944457094921684	1.8627175790833355	0.11261453171376345	0.6493077797973401	1.981528104653277	0.20902917259015338	0.4512445514370103	0.6062476613625812	0.22860856442432873	0.3655048766093276	0.33955325683317045	0.23190231016822563	0.34146466386760244	0.49349614976712325	0.35980776724878777	0.4197086366033499	0.6706453542531856	0.4195708199913979	0.29658616432383555	0.8344338415906534	0.28592723217112515	0.28653178090933457	0.7148528189160586	0.24303665800065666	0.38451672607312787	0.6463585259214825	0.23443567256158693	0.3701734669439763	0.6536140370690358	0.21425011685490844	0.3415479459271394	0.6734937361881791	0.059488823065508595	0.44261161502601004	0.6809094932620412	-0.023373367876635593	0.4557998023425395	0.9315564769135765	-0.02916614213067634	0.4583496518727918	1.1609682716447103	0.01407166526733439	0.4153031435117248	1.2509420357404488	-0.02304552423241868	0.4409172695822382	1.2871990804872868	-0.0517185104392833	0.4143764256860439	1.25635738361017
